<?xml version="1.0" encoding="iso-8859-1"?>
<!-- Uploaded to: SVG Repo, www.svgrepo.com, Generator: SVG Repo Mixer Tools -->
<svg version="1.1" id="Layer_1" xmlns="http://www.w3.org/2000/svg" xmlns:xlink="http://www.w3.org/1999/xlink" 
	 viewBox="0 0 512 512" xml:space="preserve">
<rect x="345.043" y="72.348" style="fill:#ABBDC9;" width="33.391" height="100.174"/>
<rect x="133.565" y="72.348" style="fill:#C2CCD7;" width="33.391" height="100.174"/>
<path style="fill:#606060;" d="M431.304,171.13c-9.217,0-16.696-7.473-16.696-16.696v-32c0-9.223,7.479-16.696,16.696-16.696
	c9.217,0,16.696,7.473,16.696,16.696v32C448,163.657,440.521,171.13,431.304,171.13z"/>
<g>
	<path style="fill:#6E6057;" d="M86.261,171.13c-9.217,0-16.696-7.473-16.696-16.696v-32c0-9.223,7.479-16.696,16.696-16.696
		s16.696,7.473,16.696,16.696v32C102.957,163.657,95.478,171.13,86.261,171.13z"/>
	<path style="fill:#6E6057;" d="M378.435,72.348h-244.87V55.652c0-27.662,22.424-50.087,50.087-50.087h144.696
		c27.662,0,50.087,22.424,50.087,50.087V72.348z"/>
</g>
<path style="fill:#615349;" d="M328.348,5.565H256v66.783h122.435V55.652C378.435,27.99,356.01,5.565,328.348,5.565z"/>
<path style="fill:#95673F;" d="M445.913,506.435H66.087C29.641,506.435,0,476.788,0,440.348v-235.13
	c0-36.44,29.641-66.087,66.087-66.087h379.826c36.445,0,66.087,29.647,66.087,66.087v235.13
	C512,476.788,482.358,506.435,445.913,506.435z"/>
<path style="fill:#875334;" d="M445.913,139.13H256v367.304h189.913c36.445,0,66.087-29.647,66.087-66.087v-235.13
	C512,168.777,482.358,139.13,445.913,139.13z"/>
</svg>